<?xml version="1.0" encoding="UTF-8"?>
<svg id="Layer_1" xmlns="http://www.w3.org/2000/svg" version="1.1" viewBox="0 0 32 32">
  <!-- Generator: Adobe Illustrator 29.1.0, SVG Export Plug-In . SVG Version: 2.1.0 Build 142)  -->
  <defs>
    <style>
      .st0 {
        fill: #f47c2c;
      }
    </style>
  </defs>
  <path class="st0" d="M29.62,31h-10.15c-.07,0-.13-.03-.18-.08L2.82,14.46c-.16-.16-.05-.44.18-.44h11.83s.02,0,.03,0c2.31-.23,3.89-2.23,3.67-4.16-.18-1.5-1.45-2.82-3.14-3.16-.02,0-.04,0-.06,0H2.64c-.14,0-.26-.12-.26-.26V2.16c0-.14.12-.26.26-.26h13.14s.02,0,.04,0c.47-.06,3.79.36,6.57,2.91,1.67,1.53,2.18,2.97,1.96,5.17-.37,3.62-3.53,6.85-8.63,7.11-.23.01-.33.29-.16.45l14.24,13.02c.17.16.06.45-.17.45Z"/>
</svg>